<svg width="109" height="28" viewBox="0 0 109 28" fill="none" xmlns="http://www.w3.org/2000/svg">
<path d="M12.1648 8.84243H12.0363C11.6089 8.01119 10.9665 7.34731 10.1033 6.848C9.24022 6.3487 8.26536 6.09766 7.17877 6.09766C5.92178 6.09766 4.78212 6.42681 3.75977 7.08789C2.73743 7.74898 1.93855 8.67227 1.36313 9.86614C0.787708 11.0572 0.5 12.4212 0.5 13.9526C0.5 15.484 0.793294 16.862 1.37989 18.0865C1.96648 19.311 2.77095 20.2678 3.79329 20.9596C4.81564 21.6514 5.9553 21.9972 7.21229 21.9972C8.27653 21.9972 9.23184 21.7378 10.0726 21.2162C10.9134 20.6946 11.5698 20.0307 12.0391 19.2218H12.1676V21.5844C12.1676 22.7532 11.8324 23.6848 11.162 24.3766C10.4916 25.0684 9.47206 25.4143 8.10893 25.4143C7.12848 25.4143 6.3715 25.2553 5.84078 24.9345C5.30726 24.6165 4.84916 24.1479 4.46648 23.5314H1.27095C1.46368 24.318 1.82402 25.0488 2.35754 25.7183C2.89106 26.3878 3.64246 26.9373 4.61173 27.3613C5.581 27.788 6.73743 28 8.081 28C9.59497 28 10.8883 27.735 11.9637 27.2023C13.0391 26.6695 13.8547 25.9247 14.4078 24.968C14.9609 24.0112 15.2402 22.8703 15.2402 21.5537V6.28734H12.1704V8.83964L12.1648 8.84243ZM11.6536 16.6779C11.3352 17.4979 10.8492 18.1562 10.1983 18.6555C9.54748 19.1548 8.76536 19.4059 7.84916 19.4059C6.93296 19.4059 6.19273 19.1548 5.56424 18.6555C4.93575 18.1562 4.4553 17.4952 4.12569 16.6779C3.79609 15.8578 3.63128 14.9596 3.63128 13.9805C3.63128 13.0014 3.80167 12.0977 4.14245 11.2664C4.48324 10.438 4.97486 9.79361 5.61173 9.33615C6.25139 8.87869 7.01955 8.64996 7.9134 8.64996C8.80725 8.64996 9.581 8.90937 10.2318 9.43099C10.8827 9.95261 11.3603 10.6276 11.6704 11.4589C11.9776 12.2901 12.1341 13.1604 12.1341 14.0753C12.1341 14.9903 11.9749 15.8578 11.6536 16.6779Z" fill="black"/>
<path d="M23.9917 6.35145C23.2235 6.5216 22.5894 6.8368 22.0894 7.29426C21.5894 7.75173 21.2431 8.30961 21.0503 8.9707H20.8576V6.29008H17.8213V22.3459H20.8576V13.2496C20.8576 11.8466 21.1928 10.7866 21.866 10.0725C22.5364 9.36121 23.4163 9.00417 24.5028 9.00417H26.6118V6.29008C25.6313 6.16177 24.757 6.18408 23.9917 6.35424V6.35145Z" fill="black"/>
<path d="M37.4975 6.79775C36.422 6.28729 35.2768 6.03066 34.0617 6.03066C32.6567 6.03066 31.4081 6.35423 30.3215 7.00416C29.2349 7.65409 28.3829 8.5997 27.7628 9.84377C27.1455 11.0878 26.8354 12.5634 26.8354 14.265C26.8354 15.9665 27.1455 17.4728 27.7628 18.7169C28.3801 19.9609 29.2377 20.9205 30.3354 21.5899C31.4332 22.2594 32.707 22.5941 34.1539 22.5941C35.9639 22.5941 37.4667 22.1004 38.6595 21.1102C39.8522 20.1199 40.6315 18.8284 40.9919 17.2329H37.9556C37.679 18.0613 37.2153 18.7503 36.5645 19.2915C35.9137 19.8354 35.1092 20.106 34.1511 20.106C33.3187 20.106 32.584 19.8828 31.9444 19.4365C31.3047 18.9902 30.8103 18.3514 30.4584 17.5202C30.1567 16.8089 29.9863 15.9777 29.9416 15.0293H41.1176V13.9442C41.1176 12.0725 40.7824 10.5411 40.112 9.34726C39.4416 8.15619 38.5673 7.30542 37.4919 6.79217L37.4975 6.79775ZM29.9723 12.7364C30.0394 12.0362 30.2097 11.4086 30.4807 10.8535C30.8438 10.1088 31.3327 9.53973 31.95 9.14642C32.5673 8.75312 33.2712 8.55507 34.0589 8.55507C35.1874 8.55507 36.1204 8.93443 36.855 9.68757C37.5896 10.4435 37.9779 11.4588 38.0226 12.7364H29.9695H29.9723Z" fill="black"/>
<path d="M52.9662 6.79775C51.8908 6.28729 50.7455 6.03066 49.5305 6.03066C48.1254 6.03066 46.8768 6.35423 45.7902 7.00416C44.7036 7.65409 43.8517 8.5997 43.2316 9.84377C42.6143 11.0878 42.3042 12.5634 42.3042 14.265C42.3042 15.9665 42.6143 17.4728 43.2316 18.7169C43.8489 19.9609 44.7064 20.9205 45.8042 21.5899C46.902 22.2594 48.1757 22.5941 49.6226 22.5941C51.4327 22.5941 52.9355 22.1004 54.1282 21.1102C55.3209 20.1199 56.1003 18.8284 56.4606 17.2329H53.4243C53.1478 18.0613 52.6841 18.7503 52.0332 19.2915C51.3824 19.8354 50.5779 20.106 49.6198 20.106C48.7874 20.106 48.0528 19.8828 47.4131 19.4365C46.7735 18.9902 46.2791 18.3514 45.9271 17.5202C45.6254 16.8089 45.455 15.9777 45.4103 15.0293H56.5863V13.9442C56.5863 12.0725 56.2511 10.5411 55.5807 9.34726C54.9103 8.15619 54.036 7.30542 52.9606 6.79217L52.9662 6.79775ZM45.4439 12.7364C45.5109 12.0362 45.6813 11.4086 45.9522 10.8535C46.3154 10.1088 46.8042 9.53973 47.4215 9.14642C48.0388 8.75312 48.7427 8.55507 49.5305 8.55507C50.6589 8.55507 51.5919 8.93443 52.3265 9.68757C53.0612 10.4435 53.4494 11.4588 53.4941 12.7364H45.4411H45.4439Z" fill="black"/>
<path d="M69.1423 6.73359C68.2791 6.26497 67.3155 6.03066 66.2484 6.03066C65.1199 6.03066 64.187 6.27055 63.4523 6.75033C62.7177 7.23011 62.1143 7.85214 61.6451 8.61644H61.4523V6.28729H58.416V22.3431H61.4523V13.2134C61.4523 11.8521 61.7652 10.7503 62.3965 9.91072C63.025 9.07111 63.9775 8.64991 65.2568 8.64991C66.3853 8.64991 67.2763 9.00137 67.9272 9.7043C68.578 10.4072 68.902 11.3528 68.902 12.5439V22.3431H71.9384V11.7461C71.9384 10.5969 71.687 9.59273 71.187 8.7308C70.687 7.86888 70.0054 7.205 69.1423 6.73638V6.73359Z" fill="black"/>
<path d="M84.1957 6.79775C83.1203 6.28729 81.975 6.03066 80.7599 6.03066C79.3549 6.03066 78.1063 6.35423 77.0197 7.00416C75.9331 7.65409 75.0812 8.5997 74.4611 9.84377C73.8437 11.0878 73.5337 12.5634 73.5337 14.265C73.5337 15.9665 73.8437 17.4728 74.4611 18.7169C75.0784 19.9609 75.9359 20.9205 77.0337 21.5899C78.1315 22.2594 79.4052 22.5941 80.8521 22.5941C82.6622 22.5941 84.165 22.1004 85.3577 21.1102C86.5504 20.1199 87.3298 18.8284 87.6901 17.2329H84.6538C84.3773 18.0613 83.9136 18.7503 83.2627 19.2915C82.6119 19.8354 81.8074 20.106 80.8493 20.106C80.0169 20.106 79.2823 19.8828 78.6426 19.4365C78.003 18.9902 77.5085 18.3514 77.1566 17.5202C76.8549 16.8089 76.6845 15.9777 76.6398 15.0293H87.8158V13.9442C87.8158 12.0725 87.4806 10.5411 86.8102 9.34726C86.1398 8.15619 85.2655 7.30542 84.1901 6.79217L84.1957 6.79775ZM76.6706 12.7364C76.7376 12.0362 76.908 11.4086 77.1789 10.8535C77.5421 10.1088 78.0309 9.53973 78.6482 9.14642C79.2655 8.75312 79.9694 8.55507 80.7572 8.55507C81.8856 8.55507 82.8186 8.93443 83.5532 9.68757C84.2879 10.4435 84.6761 11.4588 84.7208 12.7364H76.6678H76.6706Z" fill="black"/>
<path d="M92.6843 0H89.6787V22.3431H92.6843V0Z" fill="black"/>
<path d="M105.276 6.28732L101.441 18.385H101.248L97.0277 6.28732H93.7344L99.807 22.438L98.7846 25.1186H94.726V27.735H97.6338C98.6981 27.735 99.631 27.4533 100.43 26.8898C101.229 26.3264 101.821 25.523 102.204 24.4798L108.5 6.28453H105.271L105.276 6.28732Z" fill="black"/>
</svg>
