<svg width="29" height="24" viewBox="0 0 29 24" fill="none" xmlns="http://www.w3.org/2000/svg">
<path d="M23.0157 14.5851V5.65059C23.0157 5.28791 22.5507 5.12727 22.3165 5.4088L12.4102 17.3093H12.2965V17.306C9.03118 17.306 6.43114 14.4857 6.91823 11.2084C7.25256 8.96439 9.05664 7.15596 11.3461 6.77341C12.899 6.5134 14.3653 6.90755 15.4973 7.71406C15.6637 7.83329 15.9064 7.80514 16.0353 7.64781L19.8658 3.0489C20.0067 2.87998 19.9761 2.63157 19.7979 2.49743C17.5119 0.775109 14.5911 -0.180445 11.4445 0.0282203C5.33139 0.432302 0.475829 5.1488 0.0328722 11.1123C-0.486457 18.1274 5.21598 23.9999 12.2965 23.9999H15.3344C15.5516 23.9999 15.7282 23.8276 15.7282 23.6157V14.5851H21.103V23.5196C21.103 23.8823 21.5681 24.0429 21.8023 23.7614L28.9083 15.2277C29.1238 14.9693 28.9354 14.5834 28.5943 14.5834H23.014L23.0157 14.5851Z" fill="black"/>
</svg>
